# MagicaVoxel @ Ephtracy

# group
g chr_ninja

# material
mtllib chr_ninja.mtl
usemtl palette

# normals
vn -1 0 0
vn 1 0 0
vn 0 0 1
vn 0 0 -1
vn 0 -1 0
vn 0 1 0

# texcoords
vt 0.00195313 0.5
vt 0.0332031 0.5
vt 0.0605469 0.5
vt 0.142578 0.5
vt 0.310547 0.5
vt 0.521484 0.5
vt 0.611328 0.5
vt 0.634766 0.5
vt 0.646484 0.5
vt 0.841797 0.5
vt 0.849609 0.5
vt 0.904297 0.5
vt 0.990234 0.5
vt 0.994141 0.5

# verts
v -4 5 -1.5
v -4 5 -3.5
v -4 6 0.5
v -4 6 -1.5
v -4 7 -1.5
v -4 7 -3.5
v -4 8 2.5
v -4 8 0.5
v -4 8 -1.5
v -4 8 -2.5
v -4 9 3.5
v -4 9 2.5
v -4 13 3.5
v -4 13 2.5
v -4 13 -2.5
v -4 14 2.5
v -4 14 -2.5
v -3 1 2.5
v -3 1 0.5
v -3 2 4.5
v -3 2 2.5
v -3 3 2.5
v -3 3 0.5
v -3 3 -1.5
v -3 4 4.5
v -3 4 2.5
v -3 4 -1.5
v -3 4 -2.5
v -3 5 -1.5
v -3 5 -2.5
v -3 6 0.5
v -3 6 -1.5
v -3 7 -1.5
v -3 7 -2.5
v -3 8 3.5
v -3 8 2.5
v -3 8 0.5
v -3 8 -1.5
v -3 8 -2.5
v -3 8 -3.5
v -3 9 3.5
v -3 9 2.5
v -3 13 3.5
v -3 13 2.5
v -3 13 -2.5
v -3 13 -3.5
v -3 14 3.5
v -3 14 2.5
v -3 14 -2.5
v -3 14 -3.5
v -3 15 2.5
v -3 15 -2.5
v -1 3 -1.5
v -1 3 -2.5
v -1 4 -1.5
v -1 4 -2.5
v 1 0 -2.5
v 1 0 -4.5
v 1 1 -0.5
v 1 1 -2.5
v 1 2 -2.5
v 1 2 -4.5
v 1 3 -0.5
v 1 3 -1.5
v 1 3 -2.5
v 2 5 -2.5
v 2 5 -3.5
v 2 7 -2.5
v 2 7 -3.5
v 3 10 3.5
v 3 10 2.5
v 3 11 -4.5
v 3 11 -5.5
v 3 12 3.5
v 3 12 2.5
v 3 12 -4.5
v 3 12 -5.5
v 4 11 -3.5
v 4 11 -4.5
v 4 12 -3.5
v 4 12 -4.5
v -3 10 3.5
v -3 10 2.5
v -3 12 3.5
v -3 12 2.5
v -2 5 -2.5
v -2 5 -3.5
v -2 7 -2.5
v -2 7 -3.5
v -1 1 2.5
v -1 1 0.5
v -1 2 4.5
v -1 2 2.5
v -1 3 2.5
v -1 3 0.5
v -1 4 4.5
v -1 4 2.5
v 1 3 2.5
v 1 3 1.5
v 1 4 2.5
v 1 4 1.5
v 3 0 -2.5
v 3 0 -4.5
v 3 1 -0.5
v 3 1 -2.5
v 3 2 -2.5
v 3 2 -4.5
v 3 3 1.5
v 3 3 -0.5
v 3 3 -2.5
v 3 4 2.5
v 3 4 1.5
v 3 5 -1.5
v 3 5 -2.5
v 3 6 1.5
v 3 6 0.5
v 3 6 -1.5
v 3 7 -1.5
v 3 7 -2.5
v 3 8 3.5
v 3 8 2.5
v 3 8 1.5
v 3 8 0.5
v 3 8 -1.5
v 3 8 -2.5
v 3 8 -3.5
v 3 9 3.5
v 3 9 2.5
v 3 12 -2.5
v 3 12 -3.5
v 3 13 3.5
v 3 13 2.5
v 3 13 -2.5
v 3 13 -3.5
v 3 14 3.5
v 3 14 2.5
v 3 14 -2.5
v 3 14 -3.5
v 3 15 2.5
v 3 15 -2.5
v 4 5 -1.5
v 4 5 -3.5
v 4 6 0.5
v 4 6 -1.5
v 4 7 -1.5
v 4 7 -3.5
v 4 8 2.5
v 4 8 0.5
v 4 8 -1.5
v 4 8 -2.5
v 4 9 3.5
v 4 9 2.5
v 4 11 -4.5
v 4 11 -5.5
v 4 12 -2.5
v 4 12 -3.5
v 4 12 -4.5
v 4 12 -5.5
v 4 13 3.5
v 4 13 2.5
v 4 13 -2.5
v 4 13 -3.5
v 4 14 2.5
v 4 14 -2.5
v 5 11 -3.5
v 5 11 -4.5
v 5 12 -3.5
v 5 12 -4.5
v -3 2 4.5
v -3 4 4.5
v -1 2 4.5
v -1 4 4.5
v -4 9 3.5
v -4 13 3.5
v -3 8 3.5
v -3 9 3.5
v -3 10 3.5
v -3 12 3.5
v -3 13 3.5
v -3 14 3.5
v 3 8 3.5
v 3 9 3.5
v 3 10 3.5
v 3 12 3.5
v 3 13 3.5
v 3 14 3.5
v 4 9 3.5
v 4 13 3.5
v -4 8 2.5
v -4 9 2.5
v -4 13 2.5
v -4 14 2.5
v -3 1 2.5
v -3 2 2.5
v -3 4 2.5
v -3 8 2.5
v -3 9 2.5
v -3 10 2.5
v -3 12 2.5
v -3 13 2.5
v -3 14 2.5
v -3 15 2.5
v -2 10 2.5
v -2 11 2.5
v -2 12 2.5
v -1 1 2.5
v -1 2 2.5
v -1 3 2.5
v -1 4 2.5
v -1 10 2.5
v -1 11 2.5
v -1 12 2.5
v 1 3 2.5
v 1 4 2.5
v 1 10 2.5
v 1 11 2.5
v 1 12 2.5
v 2 10 2.5
v 2 11 2.5
v 2 12 2.5
v 3 4 2.5
v 3 8 2.5
v 3 9 2.5
v 3 10 2.5
v 3 12 2.5
v 3 13 2.5
v 3 14 2.5
v 3 15 2.5
v 4 8 2.5
v 4 9 2.5
v 4 13 2.5
v 4 14 2.5
v 1 3 1.5
v 1 4 1.5
v 3 3 1.5
v 3 4 1.5
v -4 6 0.5
v -4 8 0.5
v -3 6 0.5
v -3 8 0.5
v 3 6 0.5
v 3 8 0.5
v 4 6 0.5
v 4 8 0.5
v 1 1 -0.5
v 1 3 -0.5
v 2 3 -0.5
v 3 1 -0.5
v 3 3 -0.5
v -4 5 -1.5
v -4 6 -1.5
v -3 5 -1.5
v -3 6 -1.5
v 3 5 -1.5
v 3 6 -1.5
v 4 5 -1.5
v 4 6 -1.5
v 1 0 -2.5
v 1 1 -2.5
v 3 0 -2.5
v 3 1 -2.5
v 4 11 -3.5
v 4 12 -3.5
v 5 11 -3.5
v 5 12 -3.5
v 3 11 -4.5
v 3 12 -4.5
v 4 11 -4.5
v 4 12 -4.5
v -3 1 0.5
v -3 3 0.5
v -2 3 0.5
v -1 1 0.5
v -1 3 0.5
v -4 7 -1.5
v -4 8 -1.5
v -3 3 -1.5
v -3 4 -1.5
v -3 7 -1.5
v -3 8 -1.5
v -2 3 -1.5
v -2 4 -1.5
v -1 3 -1.5
v -1 4 -1.5
v 3 7 -1.5
v 3 8 -1.5
v 4 7 -1.5
v 4 8 -1.5
v -4 8 -2.5
v -4 13 -2.5
v -4 14 -2.5
v -3 4 -2.5
v -3 5 -2.5
v -3 7 -2.5
v -3 8 -2.5
v -3 13 -2.5
v -3 14 -2.5
v -3 15 -2.5
v -2 5 -2.5
v -2 7 -2.5
v -1 3 -2.5
v -1 4 -2.5
v 1 2 -2.5
v 1 3 -2.5
v 2 5 -2.5
v 2 7 -2.5
v 2 14 -2.5
v 3 2 -2.5
v 3 3 -2.5
v 3 5 -2.5
v 3 7 -2.5
v 3 8 -2.5
v 3 12 -2.5
v 3 13 -2.5
v 3 14 -2.5
v 3 15 -2.5
v 4 8 -2.5
v 4 12 -2.5
v 4 13 -2.5
v 4 14 -2.5
v -4 5 -3.5
v -4 7 -3.5
v -3 8 -3.5
v -3 13 -3.5
v -3 14 -3.5
v -2 5 -3.5
v -2 7 -3.5
v 2 5 -3.5
v 2 7 -3.5
v 2 13 -3.5
v 2 14 -3.5
v 3 8 -3.5
v 3 12 -3.5
v 3 13 -3.5
v 3 14 -3.5
v 4 5 -3.5
v 4 7 -3.5
v 4 12 -3.5
v 4 13 -3.5
v 1 0 -4.5
v 1 2 -4.5
v 3 0 -4.5
v 3 2 -4.5
v 4 11 -4.5
v 4 12 -4.5
v 5 11 -4.5
v 5 12 -4.5
v 3 11 -5.5
v 3 12 -5.5
v 4 11 -5.5
v 4 12 -5.5
v 1 0 -2.5
v 3 0 -2.5
v 1 0 -4.5
v 3 0 -4.5
v -3 1 2.5
v -1 1 2.5
v -3 1 0.5
v -1 1 0.5
v 1 1 -0.5
v 3 1 -0.5
v 1 1 -2.5
v 3 1 -2.5
v -3 2 4.5
v -1 2 4.5
v -3 2 2.5
v -1 2 2.5
v -1 3 2.5
v 1 3 2.5
v 1 3 1.5
v 3 3 1.5
v -3 3 0.5
v -2 3 0.5
v -1 3 0.5
v 2 3 0.5
v 1 3 -0.5
v 2 3 -0.5
v 3 3 -0.5
v -3 3 -1.5
v -2 3 -1.5
v -1 3 -1.5
v 1 3 -1.5
v -1 3 -2.5
v 1 3 -2.5
v 1 4 2.5
v 3 4 2.5
v 1 4 1.5
v 3 4 1.5
v -3 4 -1.5
v -2 4 -1.5
v -1 4 -1.5
v -3 4 -2.5
v -1 4 -2.5
v -4 5 -1.5
v -3 5 -1.5
v 3 5 -1.5
v 4 5 -1.5
v -3 5 -2.5
v -2 5 -2.5
v 2 5 -2.5
v 3 5 -2.5
v -4 5 -3.5
v -2 5 -3.5
v 2 5 -3.5
v 4 5 -3.5
v -4 6 0.5
v -3 6 0.5
v 3 6 0.5
v 4 6 0.5
v -4 6 -1.5
v -3 6 -1.5
v 3 6 -1.5
v 4 6 -1.5
v -3 8 3.5
v 3 8 3.5
v -4 8 2.5
v -3 8 2.5
v 3 8 2.5
v 4 8 2.5
v 3 8 1.5
v -4 8 0.5
v -3 8 0.5
v 3 8 0.5
v 4 8 0.5
v -4 8 -1.5
v -3 8 -1.5
v 3 8 -1.5
v 4 8 -1.5
v -4 8 -2.5
v -3 8 -2.5
v 3 8 -2.5
v 4 8 -2.5
v -3 8 -3.5
v 3 8 -3.5
v -4 9 3.5
v -3 9 3.5
v 3 9 3.5
v 4 9 3.5
v -4 9 2.5
v -3 9 2.5
v 3 9 2.5
v 4 9 2.5
v 4 11 -3.5
v 5 11 -3.5
v 3 11 -4.5
v 4 11 -4.5
v 5 11 -4.5
v 3 11 -5.5
v 4 11 -5.5
v -3 12 3.5
v 3 12 3.5
v -3 12 2.5
v -2 12 2.5
v -1 12 2.5
v 1 12 2.5
v 2 12 2.5
v 3 12 2.5
v 3 12 -2.5
v 4 12 -2.5
v 3 12 -3.5
v 4 12 -3.5
v 1 2 -2.5
v 3 2 -2.5
v 1 2 -4.5
v 3 2 -4.5
v -3 4 4.5
v -1 4 4.5
v -3 4 2.5
v -1 4 2.5
v -4 7 -1.5
v -3 7 -1.5
v 3 7 -1.5
v 4 7 -1.5
v -3 7 -2.5
v -2 7 -2.5
v 2 7 -2.5
v 3 7 -2.5
v -4 7 -3.5
v -2 7 -3.5
v 2 7 -3.5
v 4 7 -3.5
v -3 10 3.5
v 3 10 3.5
v -3 10 2.5
v -2 10 2.5
v -1 10 2.5
v 1 10 2.5
v 2 10 2.5
v 3 10 2.5
v 4 12 -3.5
v 5 12 -3.5
v 3 12 -4.5
v 4 12 -4.5
v 5 12 -4.5
v 3 12 -5.5
v 4 12 -5.5
v -4 13 3.5
v -3 13 3.5
v 3 13 3.5
v 4 13 3.5
v -4 13 2.5
v -3 13 2.5
v 3 13 2.5
v 4 13 2.5
v 3 13 -2.5
v 4 13 -2.5
v 3 13 -3.5
v 4 13 -3.5
v -3 14 3.5
v 3 14 3.5
v -4 14 2.5
v -3 14 2.5
v 3 14 2.5
v 4 14 2.5
v -4 14 -2.5
v -3 14 -2.5
v 2 14 -2.5
v 3 14 -2.5
v 4 14 -2.5
v -3 14 -3.5
v 2 14 -3.5
v 3 14 -3.5
v -3 15 2.5
v 3 15 2.5
v -3 15 -2.5
v 3 15 -2.5

# faces
f 4/14/1 2/14/1 1/14/1
f 5/14/1 2/14/1 4/14/1
f 5/14/1 4/14/1 3/14/1
f 6/14/1 2/14/1 5/14/1
f 8/14/1 5/14/1 3/14/1
f 9/14/1 5/14/1 8/14/1
f 12/13/1 8/13/1 7/13/1
f 12/13/1 10/13/1 9/13/1
f 12/13/1 9/13/1 8/13/1
f 13/13/1 12/13/1 11/13/1
f 14/13/1 10/13/1 12/13/1
f 14/13/1 12/13/1 13/13/1
f 15/13/1 10/13/1 14/13/1
f 16/10/1 15/10/1 14/10/1
f 17/10/1 15/10/1 16/10/1
f 21/14/1 19/14/1 18/14/1
f 22/14/1 19/14/1 21/14/1
f 22/14/1 21/14/1 20/14/1
f 23/14/1 19/14/1 22/14/1
f 25/14/1 22/14/1 20/14/1
f 26/13/1 24/13/1 23/13/1
f 26/14/1 22/14/1 25/14/1
f 26/13/1 23/13/1 22/13/1
f 27/13/1 24/13/1 26/13/1
f 29/13/1 28/13/1 27/13/1
f 29/13/1 27/13/1 26/13/1
f 30/13/1 28/13/1 29/13/1
f 31/13/1 29/13/1 26/13/1
f 32/13/1 29/13/1 31/13/1
f 36/13/1 31/13/1 26/13/1
f 37/13/1 31/13/1 36/13/1
f 38/13/1 34/13/1 33/13/1
f 39/13/1 34/13/1 38/13/1
f 41/13/1 36/13/1 35/13/1
f 42/13/1 36/13/1 41/13/1
f 45/13/1 40/13/1 39/13/1
f 46/13/1 40/13/1 45/13/1
f 47/11/1 44/11/1 43/11/1
f 48/11/1 44/11/1 47/11/1
f 49/10/1 46/10/1 45/10/1
f 50/10/1 46/10/1 49/10/1
f 51/13/1 49/13/1 48/13/1
f 52/13/1 49/13/1 51/13/1
f 55/13/1 54/13/1 53/13/1
f 56/13/1 54/13/1 55/13/1
f 60/14/1 58/14/1 57/14/1
f 61/14/1 58/14/1 60/14/1
f 61/14/1 60/14/1 59/14/1
f 62/14/1 58/14/1 61/14/1
f 63/14/1 61/14/1 59/14/1
f 64/14/1 61/14/1 63/14/1
f 65/14/1 61/14/1 64/14/1
f 68/14/1 67/14/1 66/14/1
f 69/14/1 67/14/1 68/14/1
f 74/13/1 71/13/1 70/13/1
f 75/13/1 71/13/1 74/13/1
f 76/10/1 73/10/1 72/10/1
f 77/10/1 73/10/1 76/10/1
f 80/10/1 79/10/1 78/10/1
f 81/10/1 79/10/1 80/10/1
f 82/13/2 83/13/2 84/13/2
f 84/13/2 83/13/2 85/13/2
f 86/14/2 87/14/2 88/14/2
f 88/14/2 87/14/2 89/14/2
f 90/14/2 91/14/2 93/14/2
f 93/14/2 91/14/2 94/14/2
f 92/14/2 93/14/2 94/14/2
f 94/14/2 91/14/2 95/14/2
f 92/14/2 94/14/2 96/14/2
f 96/14/2 94/14/2 97/14/2
f 98/13/2 99/13/2 100/13/2
f 100/13/2 99/13/2 101/13/2
f 102/14/2 103/14/2 105/14/2
f 105/14/2 103/14/2 106/14/2
f 104/14/2 105/14/2 106/14/2
f 106/14/2 103/14/2 107/14/2
f 104/14/2 106/14/2 109/14/2
f 109/14/2 106/14/2 110/14/2
f 108/13/2 109/13/2 112/13/2
f 109/13/2 110/13/2 112/13/2
f 112/13/2 110/13/2 113/13/2
f 111/13/2 112/13/2 113/13/2
f 113/13/2 110/13/2 114/13/2
f 111/13/2 113/13/2 115/13/2
f 115/13/2 113/13/2 116/13/2
f 116/13/2 113/13/2 117/13/2
f 111/13/2 115/13/2 121/13/2
f 115/14/2 116/14/2 122/14/2
f 121/13/2 115/13/2 122/13/2
f 122/14/2 116/14/2 123/14/2
f 118/13/2 119/13/2 124/13/2
f 124/13/2 119/13/2 125/13/2
f 120/13/2 121/13/2 127/13/2
f 127/13/2 121/13/2 128/13/2
f 125/13/2 126/13/2 129/13/2
f 129/13/2 126/13/2 130/13/2
f 131/11/2 132/11/2 135/11/2
f 135/11/2 132/11/2 136/11/2
f 133/11/2 134/11/2 137/11/2
f 137/11/2 134/11/2 138/11/2
f 136/13/2 137/13/2 139/13/2
f 139/13/2 137/13/2 140/13/2
f 141/14/2 142/14/2 144/14/2
f 144/14/2 142/14/2 145/14/2
f 143/14/2 144/14/2 145/14/2
f 145/14/2 142/14/2 146/14/2
f 143/14/2 145/14/2 148/14/2
f 148/14/2 145/14/2 149/14/2
f 147/13/2 148/13/2 152/13/2
f 149/13/2 150/13/2 152/13/2
f 148/13/2 149/13/2 152/13/2
f 151/13/2 152/13/2 155/13/2
f 152/13/2 150/13/2 155/13/2
f 153/10/2 154/10/2 157/10/2
f 157/10/2 154/10/2 158/10/2
f 151/13/2 155/13/2 159/13/2
f 159/13/2 155/13/2 160/13/2
f 155/10/2 156/10/2 161/10/2
f 160/13/2 155/13/2 161/13/2
f 161/10/2 156/10/2 162/10/2
f 160/11/2 161/11/2 163/11/2
f 163/11/2 161/11/2 164/11/2
f 165/10/2 166/10/2 167/10/2
f 167/10/2 166/10/2 168/10/2
f 171/14/3 170/14/3 169/14/3
f 172/14/3 170/14/3 171/14/3
f 176/13/3 174/13/3 173/13/3
f 177/13/3 174/13/3 176/13/3
f 178/13/3 174/13/3 177/13/3
f 179/13/3 174/13/3 178/13/3
f 181/13/3 176/13/3 175/13/3
f 181/13/3 177/13/3 176/13/3
f 182/13/3 177/13/3 181/13/3
f 183/13/3 177/13/3 182/13/3
f 184/13/3 179/13/3 178/13/3
f 185/11/3 180/11/3 179/11/3
f 185/13/3 179/13/3 184/13/3
f 186/11/3 180/11/3 185/11/3
f 187/13/3 184/13/3 183/13/3
f 187/13/3 183/13/3 182/13/3
f 187/13/3 185/13/3 184/13/3
f 188/13/3 185/13/3 187/13/3
f 196/13/3 190/13/3 189/13/3
f 197/13/3 190/13/3 196/13/3
f 200/10/3 192/10/3 191/10/3
f 201/10/3 192/10/3 200/10/3
f 203/3/3 199/3/3 198/3/3
f 204/3/3 199/3/3 203/3/3
f 205/3/3 199/3/3 204/3/3
f 206/14/3 194/14/3 193/14/3
f 207/14/3 194/14/3 206/14/3
f 209/13/3 196/13/3 195/13/3
f 210/14/3 204/14/3 203/14/3
f 211/12/3 205/12/3 204/12/3
f 211/14/3 204/14/3 210/14/3
f 212/12/3 205/12/3 211/12/3
f 213/13/3 209/13/3 208/13/3
f 214/13/3 196/13/3 209/13/3
f 214/13/3 209/13/3 213/13/3
f 215/2/3 212/2/3 211/2/3
f 215/2/3 211/2/3 210/2/3
f 216/2/3 212/2/3 215/2/3
f 217/2/3 212/2/3 216/2/3
f 218/14/3 216/14/3 215/14/3
f 219/12/3 217/12/3 216/12/3
f 219/14/3 216/14/3 218/14/3
f 220/12/3 217/12/3 219/12/3
f 221/13/3 196/13/3 214/13/3
f 222/13/3 196/13/3 221/13/3
f 224/2/3 219/2/3 218/2/3
f 224/2/3 220/2/3 219/2/3
f 225/2/3 220/2/3 224/2/3
f 227/13/3 202/13/3 201/13/3
f 228/13/3 202/13/3 227/13/3
f 229/13/3 223/13/3 222/13/3
f 230/13/3 223/13/3 229/13/3
f 231/11/3 227/11/3 226/11/3
f 232/11/3 227/11/3 231/11/3
f 235/13/3 234/13/3 233/13/3
f 236/13/3 234/13/3 235/13/3
f 239/14/3 238/14/3 237/14/3
f 240/14/3 238/14/3 239/14/3
f 243/14/3 242/14/3 241/14/3
f 244/14/3 242/14/3 243/14/3
f 247/14/3 246/14/3 245/14/3
f 248/14/3 247/14/3 245/14/3
f 249/14/3 247/14/3 248/14/3
f 252/14/3 251/14/3 250/14/3
f 253/14/3 251/14/3 252/14/3
f 256/14/3 255/14/3 254/14/3
f 257/14/3 255/14/3 256/14/3
f 260/14/3 259/14/3 258/14/3
f 261/14/3 259/14/3 260/14/3
f 264/10/3 263/10/3 262/10/3
f 265/10/3 263/10/3 264/10/3
f 268/10/3 267/10/3 266/10/3
f 269/10/3 267/10/3 268/10/3
f 270/14/4 271/14/4 272/14/4
f 270/14/4 272/14/4 273/14/4
f 273/14/4 272/14/4 274/14/4
f 275/14/4 276/14/4 279/14/4
f 279/14/4 276/14/4 280/14/4
f 277/13/4 278/13/4 281/13/4
f 281/13/4 278/13/4 282/13/4
f 281/14/4 282/14/4 283/14/4
f 283/14/4 282/14/4 284/14/4
f 285/14/4 286/14/4 287/14/4
f 287/14/4 286/14/4 288/14/4
f 289/13/4 290/13/4 295/13/4
f 290/10/4 291/10/4 296/10/4
f 295/13/4 290/13/4 296/13/4
f 296/10/4 291/10/4 297/10/4
f 292/13/4 293/13/4 299/13/4
f 294/13/4 295/13/4 300/13/4
f 292/13/4 299/13/4 302/13/4
f 299/13/4 300/13/4 302/13/4
f 301/13/4 302/13/4 304/13/4
f 302/13/4 300/13/4 305/13/4
f 304/13/4 302/13/4 305/13/4
f 300/13/4 295/13/4 306/13/4
f 305/13/4 300/13/4 306/13/4
f 297/13/4 298/13/4 307/13/4
f 303/14/4 304/14/4 308/14/4
f 304/13/4 305/13/4 309/13/4
f 308/14/4 304/14/4 309/14/4
f 309/13/4 305/13/4 310/13/4
f 306/13/4 295/13/4 311/13/4
f 311/13/4 295/13/4 312/13/4
f 307/13/4 298/13/4 315/13/4
f 315/13/4 298/13/4 316/13/4
f 312/13/4 313/13/4 317/13/4
f 317/13/4 313/13/4 318/13/4
f 314/11/4 315/11/4 319/11/4
f 319/11/4 315/11/4 320/11/4
f 321/14/4 322/14/4 326/14/4
f 326/14/4 322/14/4 327/14/4
f 324/10/4 325/10/4 330/10/4
f 323/13/4 324/13/4 330/13/4
f 330/10/4 325/10/4 331/10/4
f 323/13/4 330/13/4 332/13/4
f 332/13/4 330/13/4 333/13/4
f 330/11/4 331/11/4 334/11/4
f 333/13/4 330/13/4 334/13/4
f 334/11/4 331/11/4 335/11/4
f 328/14/4 329/14/4 336/14/4
f 336/14/4 329/14/4 337/14/4
f 333/10/4 334/10/4 338/10/4
f 338/10/4 334/10/4 339/10/4
f 340/14/4 341/14/4 342/14/4
f 342/14/4 341/14/4 343/14/4
f 344/10/4 345/10/4 346/10/4
f 346/10/4 345/10/4 347/10/4
f 348/10/4 349/10/4 350/10/4
f 350/10/4 349/10/4 351/10/4
f 354/14/5 353/14/5 352/14/5
f 355/14/5 353/14/5 354/14/5
f 358/14/5 357/14/5 356/14/5
f 359/14/5 357/14/5 358/14/5
f 362/14/5 361/14/5 360/14/5
f 363/14/5 361/14/5 362/14/5
f 366/14/5 365/14/5 364/14/5
f 367/14/5 365/14/5 366/14/5
f 370/13/5 369/13/5 368/13/5
f 374/13/5 370/13/5 368/13/5
f 374/13/5 371/13/5 370/13/5
f 375/13/5 371/13/5 374/13/5
f 376/14/5 374/14/5 373/14/5
f 376/14/5 375/14/5 374/14/5
f 377/13/5 371/13/5 375/13/5
f 377/14/5 375/14/5 376/14/5
f 378/13/5 371/13/5 377/13/5
f 379/13/5 373/13/5 372/13/5
f 380/14/5 376/14/5 373/14/5
f 380/13/5 373/13/5 379/13/5
f 381/14/5 376/14/5 380/14/5
f 382/14/5 376/14/5 381/14/5
f 383/13/5 382/13/5 381/13/5
f 384/13/5 382/13/5 383/13/5
f 387/13/5 386/13/5 385/13/5
f 388/13/5 386/13/5 387/13/5
f 392/13/5 390/13/5 389/13/5
f 392/13/5 391/13/5 390/13/5
f 393/13/5 391/13/5 392/13/5
f 398/14/5 395/14/5 394/14/5
f 401/14/5 397/14/5 396/14/5
f 402/14/5 399/14/5 398/14/5
f 402/14/5 398/14/5 394/14/5
f 403/14/5 399/14/5 402/14/5
f 404/14/5 401/14/5 400/14/5
f 405/14/5 397/14/5 401/14/5
f 405/14/5 401/14/5 404/14/5
f 410/14/5 407/14/5 406/14/5
f 411/14/5 407/14/5 410/14/5
f 412/14/5 409/14/5 408/14/5
f 413/14/5 409/14/5 412/14/5
f 417/13/5 415/13/5 414/13/5
f 418/13/5 415/13/5 417/13/5
f 420/13/5 419/13/5 418/13/5
f 421/13/5 417/13/5 416/13/5
f 422/13/5 417/13/5 421/13/5
f 423/13/5 419/13/5 420/13/5
f 424/13/5 419/13/5 423/13/5
f 429/13/5 426/13/5 425/13/5
f 430/13/5 426/13/5 429/13/5
f 431/13/5 428/13/5 427/13/5
f 432/13/5 428/13/5 431/13/5
f 433/13/5 431/13/5 430/13/5
f 434/13/5 431/13/5 433/13/5
f 439/13/5 436/13/5 435/13/5
f 440/13/5 436/13/5 439/13/5
f 441/13/5 438/13/5 437/13/5
f 442/13/5 438/13/5 441/13/5
f 446/10/5 444/10/5 443/10/5
f 447/10/5 444/10/5 446/10/5
f 448/10/5 446/10/5 445/10/5
f 449/10/5 446/10/5 448/10/5
f 452/13/5 451/13/5 450/13/5
f 453/13/5 451/13/5 452/13/5
f 454/13/5 451/13/5 453/13/5
f 455/13/5 451/13/5 454/13/5
f 456/13/5 451/13/5 455/13/5
f 457/13/5 451/13/5 456/13/5
f 460/10/5 459/10/5 458/10/5
f 461/10/5 459/10/5 460/10/5
f 462/14/6 463/14/6 464/14/6
f 464/14/6 463/14/6 465/14/6
f 466/14/6 467/14/6 468/14/6
f 468/14/6 467/14/6 469/14/6
f 470/14/6 471/14/6 474/14/6
f 472/14/6 473/14/6 477/14/6
f 474/14/6 475/14/6 478/14/6
f 470/14/6 474/14/6 478/14/6
f 478/14/6 475/14/6 479/14/6
f 476/14/6 477/14/6 480/14/6
f 477/14/6 473/14/6 481/14/6
f 480/14/6 477/14/6 481/14/6
f 482/13/6 483/13/6 484/13/6
f 484/13/6 483/13/6 485/13/6
f 485/13/6 483/13/6 486/13/6
f 486/13/6 483/13/6 487/13/6
f 487/13/6 483/13/6 488/13/6
f 488/13/6 483/13/6 489/13/6
f 490/10/6 491/10/6 493/10/6
f 493/10/6 491/10/6 494/10/6
f 492/10/6 493/10/6 495/10/6
f 495/10/6 493/10/6 496/10/6
f 497/13/6 498/13/6 501/13/6
f 501/13/6 498/13/6 502/13/6
f 499/13/6 500/13/6 503/13/6
f 503/13/6 500/13/6 504/13/6
f 505/10/6 506/10/6 507/10/6
f 507/10/6 506/10/6 508/10/6
f 509/11/6 510/11/6 512/11/6
f 512/11/6 510/11/6 513/11/6
f 511/10/6 512/10/6 515/10/6
f 515/10/6 512/10/6 516/10/6
f 513/11/6 514/11/6 518/11/6
f 518/11/6 514/11/6 519/11/6
f 516/10/6 517/10/6 520/10/6
f 517/11/6 518/11/6 521/11/6
f 520/10/6 517/10/6 521/10/6
f 521/11/6 518/11/6 522/11/6
f 523/13/6 524/13/6 525/13/6
f 525/13/6 524/13/6 526/13/6
